<svg width="151" height="77" viewBox="0 0 151 77" fill="none" xmlns="http://www.w3.org/2000/svg">
<path fill-rule="evenodd" clip-rule="evenodd" d="M73.8851 21.4343C67.5851 23.0343 63.2851 24.2343 57.0851 25.8343C55.5851 26.2343 55.4851 26.3343 54.1851 24.8343C52.6851 23.1343 51.5851 22.0343 49.4851 21.0343C43.1851 17.9343 37.0851 18.8343 31.3851 22.5343C24.5851 26.9343 21.0851 33.4343 21.1851 41.5343C21.2851 49.5343 26.7851 56.1343 34.6851 57.2343C41.4851 58.1343 47.1851 55.7343 51.6851 50.6343C52.5851 49.5343 53.3851 48.3343 54.3851 46.9343C50.7851 46.9343 46.2851 46.9343 35.0851 46.9343C32.9851 46.9343 32.4851 45.6343 33.1851 43.9343C34.4851 40.8343 36.8851 35.6343 38.2851 33.0343C38.5851 32.4343 39.2851 31.4343 40.7851 31.4343H77.1851C76.9851 34.1343 76.9851 36.8343 76.5851 39.5343C75.4851 46.7343 72.7851 53.3343 68.3851 59.1343C61.1851 68.6343 51.7851 74.5343 39.8851 76.1343C30.0851 77.4343 20.9851 75.5343 12.9851 69.5343C5.58507 63.9343 1.38507 56.5343 0.285073 47.3343C-1.01493 36.4343 2.18507 26.6343 8.78507 18.0343C15.8851 8.73433 25.2851 2.83433 36.7851 0.734327C46.1851 -0.965673 55.1851 0.134327 63.2851 5.63433C68.5851 9.13433 72.3851 13.9343 74.8851 19.7343C75.4851 20.6343 75.0851 21.1343 73.8851 21.4343Z" fill="#FAFAF9"/>
<path d="M106.985 76.7343C97.8851 76.5343 89.5851 73.9343 82.5851 67.9343C76.6851 62.8343 72.9851 56.3343 71.7851 48.6343C69.9851 37.3343 73.0851 27.3343 79.8851 18.4343C87.1851 8.83433 95.9851 3.83433 107.885 1.73433C118.085 -0.0656695 127.685 0.93433 136.385 6.83433C144.285 12.2343 149.185 19.5343 150.485 29.1343C152.185 42.6343 148.285 53.6343 138.985 63.0343C132.385 69.7343 124.285 73.9343 114.985 75.8343C112.285 76.3343 109.585 76.4343 106.985 76.7343ZM130.785 36.3343C130.685 35.0343 130.685 34.0343 130.485 33.0343C128.685 23.1343 119.585 17.5343 110.085 19.7343C100.785 21.8343 94.7851 27.7343 92.5851 37.1343C90.7851 44.9343 94.5851 52.8343 101.785 56.0343C107.285 58.4343 112.785 58.1343 118.085 55.4343C125.985 51.3343 130.285 44.9343 130.785 36.3343Z" fill="#FAFAF9"/>
</svg>
