<svg width="256" height="256" viewBox="0 0 256 256" fill="none" xmlns="http://www.w3.org/2000/svg">
<g clip-path="url(#clip0_350_8)">
<path d="M256 0V256H0V0H256ZM194.845 116.171C173.361 116.171 159.614 129.906 159.614 147.947C159.614 167.533 171.146 176.799 188.505 184.194L194.52 186.774C205.491 191.573 212.033 194.495 212.033 202.744C212.033 209.628 205.665 214.609 195.697 214.609C183.832 214.609 177.123 208.42 171.967 200.001L152.417 211.358C159.479 225.312 173.914 235.959 196.255 235.959C219.103 235.959 236.117 224.094 236.117 202.436C236.117 182.346 224.577 173.409 204.138 164.645L198.124 162.068C187.803 157.599 183.333 154.677 183.333 147.46C183.333 141.621 187.799 137.151 194.845 137.151C201.752 137.151 206.202 140.065 210.326 147.46L229.059 135.433C221.135 121.495 210.14 116.171 194.845 116.171ZM115.358 117.545V199.343C115.358 211.367 110.372 214.459 102.469 214.459C94.2039 214.459 90.7662 208.79 86.9873 202.086L67.4053 213.94C73.0779 225.946 84.2322 235.914 103.493 235.914C124.81 235.914 139.414 224.577 139.414 199.668V117.545H115.358Z" fill="#FAFAF9"/>
</g>
<defs>
<clipPath id="clip0_350_8">
<rect width="256" height="256" rx="20" fill="white"/>
</clipPath>
</defs>
</svg>
