<svg width="150" height="150" viewBox="0 0 150 150" fill="none" xmlns="http://www.w3.org/2000/svg">
<g clip-path="url(#clip0_342_2)">
<path d="M14.4 99.02C24.49 100.02 34.29 99.83 43.5 94.75C43.2425 94.3837 42.9439 94.0482 42.61 93.75C31.86 86.18 24.61 75.86 19.68 63.87C16.52 56.23 13.75 48.42 10.85 40.68C10.71 40.32 10.63 39.93 10.49 39.42L24 34.18C28.07 43.45 33.18 51.8 42.27 57.32C42.58 55.32 42.82 53.54 43.11 51.71C44.7071 41.7494 48.7132 32.3297 54.78 24.27C60.46 16.54 66.78 9.26999 72.85 1.74999C73.07 1.46999 73.24 1.14999 73.47 0.799988L85 10.04C79 18.24 74.29 26.84 74.1 37.4C77.1 36.31 79.81 35.2 82.63 34.28C92.42 31.08 102.49 30.79 112.63 32.12C120.88 33.22 129.09 34.75 137.32 36.12C137.746 36.1783 138.167 36.2686 138.58 36.39L136.28 50.8C126.19 49.61 116.41 49.99 107.01 55.05L110.9 58.05C119.2 64.6326 125.705 73.2041 129.81 82.97C133.6 91.62 136.66 100.62 140.04 109.37C140.133 109.678 140.207 109.992 140.26 110.31L126.83 115.58C122.71 106.3 117.59 97.92 108.46 92.39C108.31 93.52 108.2 94.39 108.1 95.3C106.64 106.955 102.027 117.991 94.76 127.22C89.32 134.37 83.41 141.22 77.76 148.16C77.5669 148.356 77.356 148.533 77.13 148.69L65.86 139.69C71.8 131.54 76.58 122.99 76.71 112.28L72 114.17C63.9622 117.261 55.3732 118.66 46.77 118.28C35.19 117.9 23.85 115.76 12.29 113.39L14.4 99.02ZM75.25 94.53C79.1565 94.5576 82.9834 93.4261 86.2467 91.2785C89.51 89.131 92.0632 86.0639 93.5832 82.4651C95.1032 78.8664 95.5219 74.8978 94.7862 71.0611C94.0505 67.2244 92.1935 63.6921 89.4501 60.9109C86.7067 58.1297 83.2001 56.2246 79.3738 55.4365C75.5476 54.6484 71.5736 55.0128 67.9544 56.4835C64.3352 57.9542 61.2335 60.4651 59.0415 63.6988C56.8496 66.9324 55.6658 70.7435 55.64 74.65V74.86C55.6739 80.056 57.7489 85.0304 61.4175 88.7102C65.0861 92.39 70.0541 94.4802 75.25 94.53Z" fill="white"/>
</g>
<defs>
<clipPath id="clip0_342_2">
<rect width="150" height="150" fill="white"/>
</clipPath>
</defs>
</svg>
