<svg width="91" height="101" viewBox="0 0 91 101" fill="none" xmlns="http://www.w3.org/2000/svg">
<path d="M63.14 37.15C63.1348 38.4247 62.8784 39.6858 62.3854 40.8613C61.8925 42.0368 61.1727 43.1036 60.2672 44.0008C59.3616 44.8979 58.2882 45.6078 57.1082 46.0898C55.9281 46.5719 54.6647 46.8166 53.39 46.81C52.1154 46.8166 50.8519 46.5719 49.6719 46.0898C48.4918 45.6078 47.4184 44.8979 46.5129 44.0008C45.6074 43.1036 44.8876 42.0368 44.3946 40.8613C43.9017 39.6858 43.6453 38.4247 43.64 37.15C43.6453 35.8753 43.9017 34.6142 44.3946 33.4387C44.8876 32.2632 45.6074 31.1964 46.5129 30.2992C47.4184 29.4021 48.4918 28.6922 49.6719 28.2102C50.8519 27.7281 52.1154 27.4834 53.39 27.49C54.6647 27.4834 55.9281 27.7281 57.1082 28.2102C58.2882 28.6922 59.3616 29.4021 60.2672 30.2992C61.1727 31.1964 61.8925 32.2632 62.3854 33.4387C62.8784 34.6142 63.1348 35.8753 63.14 37.15Z" fill="white"/>
<path d="M46.8 64.28C46.7948 65.5547 46.5384 66.8158 46.0454 67.9913C45.5525 69.1668 44.8327 70.2336 43.9272 71.1308C43.0217 72.0279 41.9482 72.7378 40.7682 73.2198C39.5882 73.7019 38.3247 73.9466 37.05 73.94C35.7754 73.9466 34.5119 73.7019 33.3319 73.2198C32.1519 72.7378 31.0784 72.0279 30.1729 71.1308C29.2674 70.2336 28.5476 69.1668 28.0547 67.9913C27.5617 66.8158 27.3053 65.5547 27.3 64.28C27.3053 63.0053 27.5617 61.7442 28.0547 60.5687C28.5476 59.3932 29.2674 58.3264 30.1729 57.4292C31.0784 56.5321 32.1519 55.8222 33.3319 55.3402C34.5119 54.8581 35.7754 54.6134 37.05 54.62C38.3247 54.6134 39.5882 54.8581 40.7682 55.3402C41.9482 55.8222 43.0217 56.5321 43.9272 57.4292C44.8327 58.3264 45.5525 59.3932 46.0454 60.5687C46.5384 61.7442 46.7948 63.0053 46.8 64.28Z" fill="#CDCDCD"/>
<path d="M29.62 28.45C12.8 31.85 0.140015 46.6 0.140015 64.28C0.140015 84.48 16.67 100.86 37.05 100.86C44.8948 100.881 52.542 98.4004 58.8809 93.7788C65.2198 89.1572 69.9204 82.6352 72.3 75.16C67.8631 77.3259 63.0869 78.7128 58.18 79.26C55.7622 82.5992 52.5856 85.3161 48.9119 87.1868C45.2382 89.0576 41.1726 90.0286 37.05 90.02C22.7 90.02 11.07 78.5 11.07 64.28C11.07 53.18 18.17 43.72 28.11 40.11C27.71 36.18 28.21 32.19 29.62 28.45Z" fill="#CDCDCD"/>
<path fill-rule="evenodd" clip-rule="evenodd" d="M60.82 72.98C77.65 69.58 90.3 54.82 90.3 37.15C90.3 16.95 73.78 0.569998 53.4 0.569998C45.5535 0.547015 37.9041 3.02652 31.5632 7.64825C25.2222 12.27 20.5201 18.7932 18.14 26.27C22.5769 24.1041 27.3531 22.7172 32.26 22.17C34.6777 18.8276 37.8554 16.1079 41.5311 14.2353C45.2067 12.3627 49.2749 11.3909 53.4 11.4C67.75 11.4 79.38 22.93 79.38 37.15C79.38 48.25 72.28 57.71 62.34 61.32C62.74 65.25 62.24 69.24 60.84 72.98H60.82Z" fill="white"/>
</svg>
