<svg width="256" height="256" viewBox="0 0 256 256" fill="none" xmlns="http://www.w3.org/2000/svg">
<g clip-path="url(#clip0_240_10)">
<path fill-rule="evenodd" clip-rule="evenodd" d="M236 0H20C8.954 0 0 8.954 0 20V236C0 247.046 8.954 256 20 256H236C247.046 256 256 247.046 256 236V20C256 8.954 247.046 0 236 0ZM150.518 228.095V200.475C155.528 204.676 160.97 207.826 166.845 209.926C172.719 212.027 178.65 213.077 184.639 213.077C188.152 213.077 191.219 212.76 193.839 212.127C196.459 211.494 198.648 210.617 200.404 209.495C202.16 208.373 203.471 207.049 204.334 205.525C205.194 204.013 205.641 202.301 205.63 200.562C205.63 198.145 204.939 195.987 203.557 194.088C202.175 192.189 200.289 190.434 197.899 188.823C195.509 187.212 192.673 185.659 189.39 184.163C185.879 182.568 182.337 181.043 178.765 179.588C169.09 175.56 161.878 170.64 157.127 164.829C152.375 159.017 150 151.997 150 143.769C150 137.324 151.296 131.786 153.887 127.154C156.479 122.522 160.006 118.71 164.469 115.717C168.932 112.725 174.101 110.524 179.975 109.115C185.849 107.705 192.068 107 198.633 107C205.083 107 210.799 107.388 215.78 108.165C220.761 108.942 225.354 110.136 229.558 111.747V137.554C227.421 136.08 225.151 134.809 222.777 133.757C220.329 132.663 217.803 131.754 215.219 131.038C212.627 130.318 210.05 129.786 207.487 129.441C204.925 129.096 202.492 128.923 200.188 128.923C197.021 128.923 194.141 129.225 191.55 129.829C188.958 130.434 186.77 131.282 184.985 132.376C183.2 133.469 181.817 134.778 180.838 136.303C179.859 137.828 179.37 139.539 179.37 141.438C179.37 143.51 179.917 145.365 181.011 147.005C182.105 148.645 183.66 150.199 185.676 151.666C187.691 153.134 190.139 154.572 193.018 155.982C195.898 157.392 199.151 158.844 202.779 160.341C207.732 162.412 212.181 164.613 216.126 166.943C220.07 169.274 223.454 171.906 226.275 174.841C229.072 177.736 231.273 181.153 232.754 184.896C234.251 188.665 235 193.053 235 198.059C235 204.964 233.69 210.761 231.07 215.45C228.449 220.14 224.893 223.938 220.401 226.844C215.91 229.749 210.683 231.835 204.723 233.101C198.763 234.367 192.471 235 185.849 235C179.053 235 172.589 234.425 166.456 233.274C160.323 232.123 155.01 230.397 150.518 228.095ZM140 131.742H104.482V233H76.345V131.742H41V109H140V131.742Z" fill="white"/>
</g>
<defs>
<clipPath id="clip0_240_10">
<rect width="256" height="256" fill="white"/>
</clipPath>
</defs>
</svg>
