<svg width="32" height="32" viewBox="0 0 32 32" fill="none" xmlns="http://www.w3.org/2000/svg">
<path d="M9.69663 25.5358C14.1341 28.4757 20.1716 27.9908 24.0812 24.0812C26.3419 21.8206 27.4574 18.8485 27.4279 15.8857L31.457 11.8567C32.8825 17.1946 31.5013 23.126 27.3137 27.3137C21.0652 33.5621 10.9347 33.5621 4.68624 27.3137C4.13749 26.765 3.63694 26.1863 3.18457 25.5829L8.52482 20.2426H14.9898L9.69663 25.5358Z" fill="white"/>
<path d="M4.68629 4.68629C0.498623 8.87396 -0.882472 14.8054 0.54301 20.1433L4.572 16.1143C4.54255 13.1515 5.65814 10.1794 7.91878 7.91878C11.8284 4.00915 17.8659 3.52429 22.3033 6.46419L17.0102 11.7574H23.4751L28.8154 6.41711C28.363 5.81373 27.8625 5.23504 27.3137 4.68629C21.0653 -1.5621 10.9347 -1.5621 4.68629 4.68629Z" fill="white"/>
</svg>
